<svg width="24" height="24" viewBox="0 0 24 24" fill="none" xmlns="http://www.w3.org/2000/svg">
<path d="M20.4486 17.5861C20.1318 18.2848 19.7567 18.928 19.3222 19.5193C18.7298 20.3255 18.2448 20.8835 17.8711 21.1934C17.2917 21.702 16.6709 21.9625 16.0061 21.9773C15.5289 21.9773 14.9533 21.8477 14.2834 21.5847C13.6113 21.323 12.9936 21.1934 12.4288 21.1934C11.8364 21.1934 11.2012 21.323 10.5217 21.5847C9.84111 21.8477 9.29287 21.9847 8.87371 21.9983C8.23623 22.0242 7.60083 21.7563 6.96658 21.1934C6.56178 20.8563 6.05544 20.2786 5.44888 19.4601C4.79808 18.586 4.26303 17.5725 3.84387 16.417C3.39496 15.1689 3.16992 13.9603 3.16992 12.7902C3.16992 11.4498 3.47333 10.2938 4.08106 9.32509C4.55869 8.54696 5.19409 7.93316 5.98935 7.48255C6.78462 7.03195 7.6439 6.80233 8.56926 6.78763C9.0756 6.78763 9.73959 6.93714 10.5647 7.23095C11.3875 7.52576 11.9159 7.67526 12.1475 7.67526C12.3207 7.67526 12.9076 7.50045 13.9025 7.15194C14.8434 6.82874 15.6375 6.69492 16.288 6.74764C18.0508 6.88343 19.3752 7.54675 20.2559 8.74177C18.6794 9.6536 17.8995 10.9307 17.915 12.5691C17.9293 13.8452 18.4143 14.9071 19.3674 15.7503C19.7994 16.1417 20.2818 16.4441 20.8185 16.6589C20.7021 16.9812 20.5793 17.2898 20.4486 17.5861ZM16.4057 2.40011C16.4057 3.40034 16.0229 4.33425 15.2599 5.19867C14.339 6.22629 13.2252 6.8201 12.0174 6.7264C12.002 6.60641 11.9931 6.48011 11.9931 6.3474C11.9931 5.38718 12.431 4.35956 13.2087 3.51934C13.5969 3.09392 14.0907 2.74019 14.6895 2.45801C15.287 2.18005 15.8522 2.02632 16.3837 2C16.3993 2.13371 16.4057 2.26744 16.4057 2.4001V2.40011Z" fill="white"/>
</svg>
